# File created by Blade
# Date/Time:  Thu Sep 25 14:26:36 2014
# Frame Rate: 120.000 fps
#------------------------------------------------------
:FULLY-SPECIFIED
:DEGREES
361
root 2.091068 32.520187 -2.629538 2.111908 76.983939 2.102805
Spine -0.914049 9.796643 -5.253542
Head 24.186733 -6.443162 11.954483
LeftShoulder -14.893032 23.171178 12.816180
LeftArm 21.362885 23.741943 -71.544413
LeftForeArm 3.167364 -0.000000 27.565618
LeftHand -26.781204 -0.000000 -0.851697
LeftHandThumb1 -26.253704 0.000000 33.147579
RightShoulder -20.479916 11.007345 -23.651507
RightArm -15.400851 -27.649783 94.735532
RightForeArm -21.644818 -0.000000 19.798074
RightHand -4.853252 -0.000000 6.798679
RightHandThumb1 -24.326973 -0.000000 -32.862282
LeftUpLeg 2.915937 2.797505 -3.479064
LeftLeg 6.595207 -0.000000 -0.000000
LeftFoot -19.013910 5.218015 -17.527387
LeftToeBase 5.326925 -0.000000 -0.000000
RightUpLeg -20.143320 -10.805031 -4.514709
RightLeg 22.491669 -0.000000 -0.000000
RightFoot -8.600170 -4.296502 -2.763295
RightToeBase -4.371853 -0.000000 0.000000
362
root 2.178851 32.516473 -2.591494 2.040434 77.225336 1.976727
Spine -0.967585 9.812465 -5.306980
Head 24.295212 -6.557784 11.934002
LeftShoulder -14.946753 23.245843 12.740177
LeftArm 21.348989 23.797866 -71.422615
LeftForeArm 2.793065 -0.000000 26.998630
LeftHand -26.916030 -0.000000 -1.335283
LeftHandThumb1 -26.253704 0.000000 33.147579
RightShoulder -20.513181 10.925782 -23.616836
RightArm -15.323050 -27.334516 94.545029
RightForeArm -21.812383 -0.000000 19.764847
RightHand -4.829759 -0.000000 6.986346
RightHandThumb1 -24.326973 -0.000000 -32.862282
LeftUpLeg 3.090988 2.757099 -3.388904
LeftLeg 6.460737 -0.000000 -0.000000
LeftFoot -19.007476 5.057909 -17.524072
LeftToeBase 5.241886 -0.000000 -0.000000
RightUpLeg -20.049802 -10.767848 -4.372038
RightLeg 21.045210 -0.000000 -0.000000
RightFoot -8.054670 -3.237756 -2.361485
RightToeBase -4.707966 -0.000000 0.000000
363
root 2.259414 32.511189 -2.556205 2.103688 77.466048 1.963503
Spine -1.017584 9.831312 -5.393591
Head 24.360479 -6.662210 11.931387
LeftShoulder -14.959266 23.224132 12.723876
LeftArm 21.216538 23.790759 -71.432995
LeftForeArm 2.478523 -0.000000 26.424581
LeftHand -26.818958 -0.000000 -1.242447
LeftHandThumb1 -26.253704 0.000000 33.147579
RightShoulder -20.518866 10.915958 -23.613703
RightArm -15.345225 -27.036577 94.414516
RightForeArm -21.895775 -0.000000 19.821926
RightHand -4.934357 -0.000000 7.161649
RightHandThumb1 -24.326973 -0.000000 -32.862282
LeftUpLeg 3.193319 2.730652 -3.323391
LeftLeg 6.402501 -0.000000 -0.000000
LeftFoot -19.023371 4.852524 -17.470554
LeftToeBase 5.197953 -0.000000 -0.000000
RightUpLeg -20.023324 -10.723270 -4.236586
RightLeg 19.671754 -0.000000 -0.000000
RightFoot -7.362491 -2.295692 -1.974170
RightToeBase -5.332555 -0.000000 0.000000
364
root 2.349208 32.505861 -2.514711 1.960795 77.714191 1.756334
Spine -1.077623 9.825229 -5.421159
Head 24.452577 -6.755451 11.974329
LeftShoulder -15.040545 23.264646 12.658256
LeftArm 21.185020 23.918102 -71.330631
LeftForeArm 2.044984 0.000000 25.808701
LeftHand -26.832015 -0.000000 -1.373870
LeftHandThumb1 -26.253704 0.000000 33.147579
RightShoulder -20.558279 10.882098 -23.585151
RightArm -15.391589 -27.070628 94.293212
RightForeArm -21.929292 -0.000000 19.908254
RightHand -5.008301 -0.000000 6.972898
RightHandThumb1 -24.326973 -0.000000 -32.862282
LeftUpLeg 3.334586 2.725700 -3.201637
LeftLeg 6.332893 -0.000000 -0.000000
LeftFoot -19.063499 4.612636 -17.462518
LeftToeBase 5.172747 -0.000000 -0.000000
RightUpLeg -19.936450 -10.776210 -4.027036
RightLeg 18.323053 -0.000000 -0.000000
RightFoot -6.703965 -1.436307 -1.590849
RightToeBase -5.638372 -0.000000 0.000000
365
root 2.438964 32.499253 -2.470037 1.759149 77.978948 1.519253
Spine -1.089480 9.843120 -5.439958
Head 24.514369 -6.892931 11.996485
LeftShoulder -15.032610 23.271606 12.643186
LeftArm 21.077168 23.869720 -71.350157
LeftForeArm 1.775313 -0.000000 25.233714
LeftHand -26.609661 -0.000000 -1.494636
LeftHandThumb1 -26.253704 0.000000 33.147579
RightShoulder -20.574591 10.869522 -23.576297
RightArm -15.406456 -26.770193 94.120919
RightForeArm -21.913249 -0.000000 19.949050
RightHand -4.899542 -0.000000 7.035305
RightHandThumb1 -24.326973 -0.000000 -32.862282
LeftUpLeg 3.499923 2.589284 -3.077712
LeftLeg 6.275210 -0.000000 -0.000000
LeftFoot -19.156740 4.444323 -17.467042
LeftToeBase 5.202069 -0.000000 -0.000000
RightUpLeg -19.824048 -10.837203 -3.822828
RightLeg 17.096426 -0.000000 -0.000000
RightFoot -6.168059 -0.570853 -1.029242
RightToeBase -5.293688 -0.000000 0.000000
366
root 2.533577 32.494154 -2.425971 1.525548 78.235908 1.238947
Spine -1.127986 9.857376 -5.436012
Head 24.603521 -6.970813 12.033078
LeftShoulder -15.036292 23.254050 12.609244
LeftArm 20.899451 23.795680 -71.403335
LeftForeArm 1.744857 -0.000000 24.662187
LeftHand -26.663766 -0.000000 -1.638676
LeftHandThumb1 -26.253704 0.000000 33.147579
RightShoulder -20.665583 10.802635 -23.559040
RightArm -15.413247 -26.942996 93.988255
RightForeArm -21.906035 -0.000000 20.075424
RightHand -5.129356 -0.000000 7.096966
RightHandThumb1 -24.326973 -0.000000 -32.862282
LeftUpLeg 3.664152 2.465318 -2.952146
LeftLeg 6.212753 -0.000000 -0.000000
LeftFoot -19.209573 4.314710 -17.506510
LeftToeBase 5.096303 -0.000000 -0.000000
RightUpLeg -19.722206 -10.931834 -3.597981
RightLeg 15.958815 -0.000000 -0.000000
RightFoot -5.593382 0.264946 -0.090191
RightToeBase -5.269256 -0.000000 0.000000
367
root 2.627513 32.486864 -2.378896 1.294125 78.532111 0.969428
Spine -1.149000 9.811027 -5.439433
Head 24.662617 -7.090676 12.052677
LeftShoulder -15.086371 23.340785 12.567361
LeftArm 20.859306 23.823120 -71.365017
LeftForeArm 1.427233 -0.000000 24.188256
LeftHand -26.491218 -0.000000 -2.090349
LeftHandThumb1 -26.253704 0.000000 33.147579
RightShoulder -20.669494 10.713741 -23.501403
RightArm -15.323730 -26.796771 93.768440
RightForeArm -21.950949 -0.000000 20.123045
RightHand -5.181590 -0.000000 7.092059
RightHandThumb1 -24.326973 -0.000000 -32.862282
LeftUpLeg 3.791388 2.367179 -2.812275
LeftLeg 6.260950 -0.000000 -0.000000
LeftFoot -19.337498 4.084228 -17.574177
LeftToeBase 5.127176 -0.000000 -0.000000
RightUpLeg -19.610481 -11.080548 -3.362849
RightLeg 14.860297 -0.000000 -0.000000
RightFoot -5.151938 0.993295 0.620581
RightToeBase -5.463860 -0.000000 0.000000
368
root 2.725688 32.479900 -2.331062 0.981239 78.803991 0.632610
Spine -1.159170 9.801000 -5.404544
Head 24.742547 -7.205831 12.057164
LeftShoulder -15.080553 23.348084 12.524282
LeftArm 20.706159 23.777391 -71.418162
LeftForeArm 1.218484 -0.000000 23.655743
LeftHand -26.453765 -0.000000 -2.069346
LeftHandThumb1 -26.253704 0.000000 33.147579
RightShoulder -20.660856 10.716786 -23.520293
RightArm -15.367590 -26.557956 93.613156
RightForeArm -22.128702 -0.000000 20.202864
RightHand -5.205803 -0.000000 7.095536
RightHandThumb1 -24.326973 -0.000000 -32.862282
LeftUpLeg 3.944390 2.267743 -2.674775
LeftLeg 6.267402 -0.000000 -0.000000
LeftFoot -19.413608 3.943271 -17.478521
LeftToeBase 4.971239 -0.000000 -0.000000
RightUpLeg -19.475297 -11.169894 -3.131393
RightLeg 13.886881 -0.000000 -0.000000
RightFoot -4.791221 1.596547 1.309614
RightToeBase -5.579116 -0.000000 0.000000
369
root 2.819787 32.472373 -2.278813 0.722695 79.072090 0.343913
Spine -1.163396 9.828817 -5.425495
Head 24.779393 -7.366599 12.181573
LeftShoulder -15.049599 23.417496 12.545639
LeftArm 20.654839 23.705866 -71.458391
LeftForeArm 0.935915 -0.000000 23.138034
LeftHand -26.446564 -0.000000 -2.527499
LeftHandThumb1 -26.253704 0.000000 33.147579
RightShoulder -20.690340 10.699151 -23.446949
RightArm -15.352778 -26.469057 93.390810
RightForeArm -22.007140 -0.000000 20.278338
RightHand -5.064707 0.000000 6.770811
RightHandThumb1 -24.326973 -0.000000 -32.862282
LeftUpLeg 4.052569 2.149541 -2.531573
LeftLeg 6.364749 -0.000000 -0.000000
LeftFoot -19.494942 3.741521 -17.346677
LeftToeBase 4.763410 -0.000000 -0.000000
RightUpLeg -19.369230 -11.196351 -2.915278
RightLeg 13.065521 -0.000000 -0.000000
RightFoot -4.615901 2.268495 1.599622
RightToeBase -5.715887 -0.000000 0.000000
370
root 2.915071 32.463598 -2.226834 0.454113 79.342732 0.040552
Spine -1.158497 9.791112 -5.414744
Head 24.811771 -7.468530 12.220102
LeftShoulder -15.078194 23.414321 12.514631
LeftArm 20.503973 23.696654 -71.486711
LeftForeArm 0.626400 -0.000000 22.745747
LeftHand -26.488623 0.000000 -2.821247
LeftHandThumb1 -26.253704 0.000000 33.147579
RightShoulder -20.697898 10.631966 -23.409307
RightArm -15.250418 -26.268782 93.161710
RightForeArm -22.139071 -0.000000 20.382889
RightHand -5.332015 -0.000000 7.146950
RightHandThumb1 -24.326973 -0.000000 -32.862282
LeftUpLeg 4.134808 2.032507 -2.387878
LeftLeg 6.495872 -0.000000 -0.000000
LeftFoot -19.613996 3.540408 -17.301150
LeftToeBase 4.603253 -0.000000 -0.000000
RightUpLeg -19.257298 -11.124525 -2.733773
RightLeg 12.310461 -0.000000 -0.000000
RightFoot -4.557543 2.762046 1.724498
RightToeBase -5.558193 -0.000000 0.000000
371
root 3.007898 32.454101 -2.172544 0.031814 79.591595 -0.407282
Spine -1.133807 9.790748 -5.368477
Head 24.819713 -7.572839 12.279551
LeftShoulder -15.071003 23.459366 12.493477
LeftArm 20.431008 23.697909 -71.519229
LeftForeArm 0.385110 0.000000 22.285466
LeftHand -26.416982 -0.000000 -2.450157
LeftHandThumb1 -26.253704 0.000000 33.147579
RightShoulder -20.670226 10.682327 -23.392016
RightArm -15.321701 -26.213576 92.990375
RightForeArm -22.041544 -0.000000 20.499494
RightHand -5.343179 0.000000 6.937324
RightHandThumb1 -24.326973 -0.000000 -32.862282
LeftUpLeg 4.253224 1.927465 -2.220888
LeftLeg 6.570480 -0.000000 -0.000000
LeftFoot -19.746524 3.380461 -17.277666
LeftToeBase 4.481916 -0.000000 -0.000000
RightUpLeg -19.167267 -10.976096 -2.542824
RightLeg 11.759209 -0.000000 -0.000000
RightFoot -4.454555 3.118004 1.965168
RightToeBase -6.186447 -0.000000 0.000000
372
root 3.101727 32.444079 -2.119239 -0.199887 79.818393 -0.687674
Spine -1.147758 9.789871 -5.368716
Head 24.821234 -7.667811 12.369479
LeftShoulder -15.109487 23.538191 12.462522
LeftArm 20.373658 23.632799 -71.549382
LeftForeArm 0.109979 -0.000000 21.914113
LeftHand -26.542204 -0.000000 -2.585478
LeftHandThumb1 -26.253704 0.000000 33.147579
RightShoulder -20.663031 10.680236 -23.344024
RightArm -15.232314 -25.944951 92.724661
RightForeArm -22.203804 -0.000000 20.539622
RightHand -5.207292 -0.000000 6.996016
RightHandThumb1 -24.326973 -0.000000 -32.862282
LeftUpLeg 4.308047 1.833900 -2.091561
LeftLeg 6.725943 -0.000000 -0.000000
LeftFoot -19.909428 3.231620 -17.239035
LeftToeBase 4.415645 -0.000000 -0.000000
RightUpLeg -19.127341 -10.809359 -2.389495
RightLeg 11.314391 -0.000000 -0.000000
RightFoot -4.408329 3.492077 2.226279
RightToeBase -6.262212 -0.000000 0.000000
